<svg xmlns="http://www.w3.org/2000/svg" xmlns:xlink="http://www.w3.org/1999/xlink" width="40" zoomAndPan="magnify" viewBox="0 0 30 30.000001" height="40" preserveAspectRatio="xMidYMid meet" version="1.0"><defs><clipPath id="b66a2d94e5"><path d="M 5.964844 2.902344 L 26.289062 2.902344 L 26.289062 27.582031 L 5.964844 27.582031 Z M 5.964844 2.902344 " clip-rule="nonzero"/></clipPath></defs><g clip-path="url(#b66a2d94e5)"><path fill="#ffffff" d="M 5.96875 18.898438 C 5.96875 16.550781 6.605469 14.648438 7.621094 13.1875 C 7.621094 16.074219 8.316406 17.089844 9.839844 17.089844 C 10.855469 17.089844 11.90625 16.328125 11.90625 15.027344 C 11.90625 13.851562 11.109375 11.726562 11.109375 9.441406 C 11.109375 7.15625 11.871094 4.710938 14.984375 2.902344 C 14.285156 4.742188 14 6.300781 14 7.570312 C 14 10.933594 16.03125 12.457031 17.839844 12.457031 C 19.300781 12.457031 20.824219 11.503906 20.824219 8.742188 C 21.808594 9.824219 22.25 11.058594 22.25 12.296875 C 22.25 14.265625 21.171875 16.011719 21.171875 17.597656 C 21.171875 18.898438 22.21875 19.660156 23.234375 19.660156 C 25.042969 19.660156 25.585938 18.042969 25.585938 15.375 C 26.125 16.296875 26.601562 18.105469 26.601562 19.660156 C 26.601562 24.296875 22.21875 27.660156 17.332031 27.660156 C 21.457031 26.105469 22.21875 24.042969 22.21875 21.726562 C 21.203125 23.535156 20.15625 23.789062 19.648438 23.789062 C 16.539062 23.789062 19.902344 17.851562 14.476562 13.726562 C 15.363281 15.628906 15.714844 17.28125 15.714844 18.613281 C 15.714844 21.472656 14.160156 23.027344 12.667969 23.027344 C 11.398438 23.027344 10.128906 22.011719 9.621094 19.851562 C 9.621094 22.867188 10.507812 25.722656 14.476562 27.660156 C 8.285156 26.644531 5.96875 22.773438 5.96875 18.898438 Z M 5.96875 18.898438 " fill-opacity="1" fill-rule="nonzero"/></g></svg>